<svg width="24" height="24" viewBox="0 0 24 24" fill="none" xmlns="http://www.w3.org/2000/svg">
<g clip-path="url(#clip0_26_768)">
<path d="M22.2234 9.15527e-05H1.77187C0.792187 9.15527e-05 0 0.773529 0 1.72978V22.2657C0 23.222 0.792187 24.0001 1.77187 24.0001H22.2234C23.2031 24.0001 24 23.222 24 22.2704V1.72978C24 0.773529 23.2031 9.15527e-05 22.2234 9.15527e-05ZM7.12031 20.4517H3.55781V8.9954H7.12031V20.4517ZM5.33906 7.43447C4.19531 7.43447 3.27188 6.51103 3.27188 5.37197C3.27188 4.2329 4.19531 3.30947 5.33906 3.30947C6.47813 3.30947 7.40156 4.2329 7.40156 5.37197C7.40156 6.50634 6.47813 7.43447 5.33906 7.43447ZM20.4516 20.4517H16.8937V14.8829C16.8937 13.5563 16.8703 11.8454 15.0422 11.8454C13.1906 11.8454 12.9094 13.2938 12.9094 14.7892V20.4517H9.35625V8.9954H12.7687V10.561H12.8156C13.2891 9.66103 14.4516 8.70947 16.1813 8.70947C19.7859 8.70947 20.4516 11.0813 20.4516 14.1657V20.4517Z" fill="#15AA7A"/>
</g>
<defs>
<clipPath id="clip0_26_768">
<rect width="24" height="24" fill="white"/>
</clipPath>
</defs>
</svg>
