<svg width="24" height="24" viewBox="0 0 24 24" fill="none" xmlns="http://www.w3.org/2000/svg">
<path d="M14.4414 5.65882C14.6495 6.54101 15.4417 7.1982 16.3877 7.1982C17.492 7.1982 18.3873 6.30288 18.3873 5.19851C18.3873 4.09413 17.492 3.19882 16.3877 3.19882C15.422 3.19882 14.6167 3.8832 14.4292 4.79351C12.812 4.96695 11.5492 6.33851 11.5492 8.0007C11.5492 8.00445 11.5492 8.00726 11.5492 8.01101C9.79047 8.08507 8.18453 8.5857 6.90953 9.37601C6.43609 9.00945 5.84172 8.79101 5.19672 8.79101C3.64891 8.79101 2.39453 10.0454 2.39453 11.5932C2.39453 12.7163 3.05453 13.6838 4.00797 14.131C4.10078 17.3841 7.64547 20.0007 12.0058 20.0007C16.3661 20.0007 19.9155 17.3813 20.0036 14.1254C20.9495 13.6754 21.6039 12.7107 21.6039 11.5941C21.6039 10.0463 20.3495 8.79195 18.8017 8.79195C18.1595 8.79195 17.568 9.00851 17.0955 9.37226C15.8092 8.57632 14.1855 8.0757 12.4089 8.00914C12.4089 8.00632 12.4089 8.00445 12.4089 8.00164C12.4089 6.81101 13.2939 5.82289 14.4414 5.6607V5.65882ZM6.79703 13.3716C6.84391 12.3554 7.51891 11.5754 8.30359 11.5754C9.08828 11.5754 9.68828 12.3994 9.64141 13.4157C9.59453 14.4319 9.00859 14.8013 8.22297 14.8013C7.43734 14.8013 6.75016 14.3879 6.79703 13.3716ZM15.7089 11.5754C16.4945 11.5754 17.1695 12.3554 17.2155 13.3716C17.2623 14.3879 16.5742 14.8013 15.7895 14.8013C15.0048 14.8013 14.418 14.4329 14.3711 13.4157C14.3242 12.3994 14.9233 11.5754 15.7089 11.5754ZM14.7752 15.7229C14.9223 15.7379 15.0161 15.8907 14.9589 16.0276C14.4761 17.1816 13.3361 17.9926 12.0058 17.9926C10.6755 17.9926 9.53641 17.1816 9.05266 16.0276C8.99547 15.8907 9.08922 15.7379 9.23641 15.7229C10.0989 15.6357 11.0317 15.5879 12.0058 15.5879C12.9798 15.5879 13.9117 15.6357 14.7752 15.7229Z" fill="#15AA7A"/>
</svg>
