<svg width="24" height="24" viewBox="0 0 24 24" fill="none" xmlns="http://www.w3.org/2000/svg">
<g clip-path="url(#clip0_25_834)">
<path fill-rule="evenodd" clip-rule="evenodd" d="M10.9358 0.0797729H13.0559C15.9677 0.0797729 17.6693 0.50745 19.1798 1.31731C20.6904 2.12716 21.8824 3.31009 22.6831 4.82063C23.493 6.33114 23.9207 8.03274 23.9207 10.9446V13.0557C23.9207 15.9675 23.493 17.6691 22.6831 19.1796C21.8733 20.6901 20.6904 21.8822 19.1798 22.6829C17.6693 23.4928 15.9677 23.9205 13.0559 23.9205H10.9448C8.033 23.9205 6.3314 23.4928 4.82089 22.6829C3.31039 21.8731 2.11836 20.6901 1.31761 19.1796C0.50775 17.6691 0.0800781 15.9675 0.0800781 13.0557V10.9446C0.0800781 8.03274 0.50775 6.33114 1.31761 4.82063C2.12746 3.31009 3.31039 2.11806 4.82089 1.31731C6.32233 0.50745 8.033 0.0797729 10.9358 0.0797729Z" fill="#15AA7A"/>
<path opacity="0.12" fill-rule="evenodd" clip-rule="evenodd" d="M23.9201 12.7074V13.0558C23.9201 15.9676 23.4925 17.6692 22.6826 19.1797C21.8728 20.6902 20.6898 21.8823 19.1793 22.6831C17.6688 23.4929 15.9672 23.9206 13.0554 23.9206H10.9443C8.56171 23.9206 6.98938 23.6342 5.66899 23.0865L3.49219 20.8449L23.9201 12.7074Z" fill="#001A33"/>
<path fill-rule="evenodd" clip-rule="evenodd" d="M3.73431 20.9229C4.8493 21.0462 6.24332 20.7282 7.23313 20.2477C11.5312 22.6234 18.2498 22.5099 22.3167 19.9072C22.4744 19.6706 22.6218 19.4246 22.7585 19.1695C23.5714 17.6535 24.0006 15.9457 24.0006 13.0233V10.9045C24.0006 7.98201 23.5714 6.27422 22.7585 4.7582C21.9549 3.24218 20.7585 2.05494 19.2425 1.24213C17.7265 0.429326 16.0187 9.15527e-05 13.0962 9.15527e-05H10.9683C8.4793 9.15527e-05 6.86353 0.313413 5.50594 0.911578C5.43173 0.978029 5.35892 1.04562 5.28764 1.11434C1.30471 4.95384 1.00195 13.2766 4.37933 17.7976C4.3831 17.8043 4.38727 17.811 4.39186 17.8178C4.91242 18.585 4.41012 19.9275 3.62472 20.7129C3.49686 20.8316 3.54252 20.9047 3.73431 20.9229Z" fill="white"/>
<path d="M9.87059 8.1601H5.20259V9.16104H8.44196L5.24804 13.1193C5.14796 13.2649 5.0752 13.4014 5.0752 13.7108V13.9656H9.47929C9.69769 13.9656 9.87971 13.7836 9.87971 13.5652V13.0283H6.47651L9.47929 9.26112C9.5248 9.20654 9.60668 9.10646 9.64312 9.06096L9.66131 9.03365C9.8342 8.77886 9.87059 8.56046 9.87059 8.29661V8.1601Z" fill="#15AA7A"/>
<path d="M15.8123 13.9656H16.4765V8.1601H15.4756V13.6289C15.4756 13.8109 15.6212 13.9656 15.8123 13.9656Z" fill="#15AA7A"/>
<path d="M12.3911 9.45244C11.1353 9.45244 10.1162 10.4716 10.1162 11.7273C10.1162 12.983 11.1353 14.0022 12.3911 14.0022C13.6468 14.0022 14.6659 12.983 14.6659 11.7273C14.6751 10.4716 13.6559 9.45244 12.3911 9.45244ZM12.3911 13.0649C11.654 13.0649 11.0535 12.4643 11.0535 11.7273C11.0535 10.9903 11.654 10.3897 12.3911 10.3897C13.1281 10.3897 13.7287 10.9903 13.7287 11.7273C13.7287 12.4643 13.1372 13.0649 12.3911 13.0649Z" fill="#15AA7A"/>
<path d="M19.4337 9.41586C18.1688 9.41586 17.1406 10.4441 17.1406 11.7089C17.1406 12.9738 18.1688 14.002 19.4337 14.002C20.6985 14.002 21.7267 12.9738 21.7267 11.7089C21.7267 10.4441 20.6985 9.41586 19.4337 9.41586ZM19.4337 13.0648C18.6875 13.0648 18.0869 12.4642 18.0869 11.718C18.0869 10.9719 18.6875 10.3713 19.4337 10.3713C20.1798 10.3713 20.7804 10.9719 20.7804 11.718C20.7804 12.4642 20.1798 13.0648 19.4337 13.0648Z" fill="#15AA7A"/>
<path d="M14.1386 13.9654H14.6755V9.57945H13.7383V13.5742C13.7383 13.7834 13.9202 13.9654 14.1386 13.9654Z" fill="#15AA7A"/>
</g>
<defs>
<clipPath id="clip0_25_834">
<rect width="24" height="24" fill="white"/>
</clipPath>
</defs>
</svg>
